HIERARCHY
ROOT Hips
{
	OFFSET -0.001795 -0.223333 0.028219
	CHANNELS 6 Xposition Yposition Zposition Zrotation Yrotation Xrotation 
	JOINT LeftUpLeg
	{
		OFFSET 0.069520 -0.091406 -0.006815
		CHANNELS 3 Zrotation Yrotation Xrotation
		JOINT LeftLeg
		{
			OFFSET 0.034277 -0.375199 -0.004496
			CHANNELS 3 Zrotation Yrotation Xrotation
			JOINT LeftFoot
			{
				OFFSET -0.013596 -0.397961 -0.043693
				CHANNELS 3 Zrotation Yrotation Xrotation
				JOINT LeftToe
				{
					OFFSET 0.026358 -0.055791 0.119288
					CHANNELS 3 Zrotation Yrotation Xrotation
					End Site
					{
						OFFSET 0.000000 0.000000 0.000000
					}
				}
			}
		}
	}
	JOINT RightUpLeg
	{
		OFFSET -0.067670 -0.090522 -0.004320
		CHANNELS 3 Zrotation Yrotation Xrotation
		JOINT RightLeg
		{
			OFFSET -0.038290 -0.382569 -0.008850
			CHANNELS 3 Zrotation Yrotation Xrotation
			JOINT RightFoot
			{
				OFFSET 0.015774 -0.398415 -0.042312
				CHANNELS 3 Zrotation Yrotation Xrotation
				JOINT RightToe
				{
					OFFSET -0.025372 -0.048144 0.123348
					CHANNELS 3 Zrotation Yrotation Xrotation
					End Site
					{
						OFFSET 0.000000 0.000000 0.000000
					}
				}
			}
		}
	}
	JOINT Spine
	{
		OFFSET -0.002533 0.108963 -0.026696
		CHANNELS 3 Zrotation Yrotation Xrotation
		JOINT Spine1
		{
			OFFSET 0.005487 0.135180 0.001092
			CHANNELS 3 Zrotation Yrotation Xrotation
			JOINT Spine2
			{
				OFFSET 0.001457 0.052922 0.025425
				CHANNELS 3 Zrotation Yrotation Xrotation
				JOINT Neck
				{
					OFFSET -0.002778 0.213870 -0.042857
					CHANNELS 3 Zrotation Yrotation Xrotation
					JOINT Head
					{
						OFFSET 0.005152 0.064970 0.051349
						CHANNELS 3 Zrotation Yrotation Xrotation
						End Site
						{
							OFFSET 0.000000 0.000000 0.000000
						}
					}
				}
				JOINT LeftShoulder
				{
					OFFSET 0.078845 0.121749 -0.034090
					CHANNELS 3 Zrotation Yrotation Xrotation
					JOINT LeftArm
					{
						OFFSET 0.090977 0.030469 -0.008868
						CHANNELS 3 Zrotation Yrotation Xrotation
						JOINT LeftForeArm
						{
							OFFSET 0.259612 -0.012772 -0.027456
							CHANNELS 3 Zrotation Yrotation Xrotation
							JOINT LeftHand
							{
								OFFSET 0.249234 0.008986 -0.001171
								CHANNELS 3 Zrotation Yrotation Xrotation
								End Site
								{
									OFFSET 0.000000 0.000000 0.000000
								}
							}
						}
					}
				}
				JOINT RightShoulder
				{
					OFFSET -0.081759 0.118833 -0.038615
					CHANNELS 3 Zrotation Yrotation Xrotation
					JOINT RightArm
					{
						OFFSET -0.096012 0.032551 -0.009143
						CHANNELS 3 Zrotation Yrotation Xrotation
						JOINT RightForeArm
						{
							OFFSET -0.253742 -0.013329 -0.021401
							CHANNELS 3 Zrotation Yrotation Xrotation
							JOINT RightHand
							{
								OFFSET -0.255298 0.007772 -0.005559
								CHANNELS 3 Zrotation Yrotation Xrotation
								End Site
								{
									OFFSET 0.000000 0.000000 0.000000
								}
							}
						}
					}
				}
			}
		}
	}
}
MOTION
Frames: 9
Frame Time: 0.050000
0.000000 0.936251 0.000000 0.335919 -6.590077 3.925046 2.185161 -0.007314 0.220925 -1.110771 0.243735 -4.438813 3.774790 8.897616 4.401620 0.000000 0.000000 0.000000 -0.961471 -0.044756 1.005355 0.818133 -0.117078 -1.334412 -2.625216 -7.218520 1.716322 0.000000 0.000000 0.000000 5.086887 0.153090 -2.864452 -2.414026 1.110902 -2.223917 -1.501696 3.756014 7.347754 5.209279 -1.823986 -17.555628 0.000000 0.000000 0.000000 -20.205177 -1.062054 -1.397343 -36.071865 1.902005 -4.833274 -2.587374 -22.112899 1.327628 0.000000 0.000000 0.000000 17.074043 -3.339718 -3.168697 41.105327 -0.319117 -4.220276 2.561810 26.360517 1.462824 0.000000 0.000000 0.000000 
-0.002735 0.934601 0.003082 0.087244 -6.571327 4.334163 2.216550 0.039688 0.873364 -1.261448 0.294543 -5.858440 4.333252 9.907043 3.935428 0.000000 0.000000 0.000000 0.161494 -0.078897 0.706597 0.211299 -0.087793 -1.832614 -3.201574 -8.346521 1.193611 0.000000 0.000000 0.000000 5.619793 0.215043 -3.539628 -2.616833 1.212634 -1.724799 -2.219056 4.510770 6.669778 6.057302 -1.985639 -19.182444 0.000000 0.000000 0.000000 -18.745498 -0.945012 -1.576376 -37.232655 1.575644 -4.792877 -2.848909 -22.494535 1.363414 0.000000 0.000000 0.000000 16.710637 -5.274903 -3.937589 42.358364 -1.842926 -4.835978 3.459691 28.058867 1.847301 0.000000 0.000000 0.000000 
-0.005438 0.934326 0.006029 0.382562 -6.123548 4.097487 2.235704 0.019776 0.623542 -1.620327 0.280745 -4.261553 4.516317 10.165207 3.204526 0.000000 0.000000 0.000000 0.311330 -0.077586 0.618587 0.186412 -0.055049 -0.997830 -3.539386 -8.720138 0.063609 0.000000 0.000000 0.000000 5.923132 0.183629 -3.158419 -2.395633 1.084459 -3.547794 -2.909242 4.852585 8.227348 6.101625 -1.994186 -19.092865 0.000000 0.000000 0.000000 -18.602451 -1.433109 -1.395166 -37.728734 2.185983 -5.109959 -3.344364 -22.934092 1.475614 0.000000 0.000000 0.000000 17.361402 -4.325997 -3.364574 42.274681 -2.441995 -5.177632 3.572018 28.781055 1.977421 0.000000 0.000000 0.000000 
-0.008567 0.933939 0.008841 0.673870 -5.871795 4.154437 2.299700 0.022060 0.685146 -1.909489 0.305201 -4.314072 4.880675 10.907902 3.395683 0.000000 0.000000 0.000000 0.499917 -0.113928 0.891870 0.203141 -0.037831 -0.507420 -3.956819 -9.659555 -0.110084 0.000000 0.000000 0.000000 5.756507 0.214286 -3.514514 -2.462729 1.129109 -2.709136 -3.006854 5.095471 7.266483 5.996434 -1.810409 -19.427889 0.000000 0.000000 0.000000 -18.761959 -0.924707 -1.832848 -38.176033 1.824000 -4.963027 -3.465711 -23.077753 1.483525 0.000000 0.000000 0.000000 17.233457 -5.022165 -3.642347 42.569283 -3.261233 -5.416586 4.048786 29.165318 2.150250 0.000000 0.000000 0.000000 
-0.012029 0.933968 0.011326 0.919496 -5.642477 3.806464 2.210760 0.043950 0.931215 -1.602177 0.274889 -4.122051 4.830345 10.796784 3.278947 0.000000 0.000000 0.000000 0.510971 -0.138190 1.141882 -0.141483 0.028576 0.354404 -3.953055 -9.400925 -0.827517 0.000000 0.000000 0.000000 5.542340 0.170691 -3.021912 -2.125648 0.978327 -2.870233 -3.246950 5.572725 7.239064 6.343281 -2.063763 -18.548364 0.000000 0.000000 0.000000 -18.952014 -1.186442 -1.884175 -38.178246 1.824382 -4.914847 -4.558400 -24.429885 1.771744 0.000000 0.000000 0.000000 17.384515 -4.836723 -3.425792 42.195848 -3.409938 -5.450002 4.764133 29.474745 2.391842 0.000000 0.000000 0.000000 
-0.015897 0.933800 0.013623 1.128835 -5.358021 3.595386 2.114945 0.038966 0.842946 -1.407713 0.236216 -3.203687 5.446924 12.008867 3.361784 0.000000 0.000000 0.000000 0.181973 -0.115707 1.092762 0.008594 0.054068 1.311919 -4.071413 -9.494291 -1.425477 0.000000 0.000000 0.000000 5.342317 0.138713 -2.665246 -2.184052 1.010413 -2.560471 -2.975586 5.467798 7.088297 6.287969 -1.934522 -19.191888 0.000000 0.000000 0.000000 -19.165773 -0.803874 -2.124500 -38.760078 1.300309 -4.832047 -4.836539 -25.443806 1.906219 0.000000 0.000000 0.000000 17.161968 -4.446974 -3.194932 42.754441 -2.962566 -5.369297 4.292208 28.993446 2.234180 0.000000 0.000000 0.000000 
-0.020309 0.933265 0.015884 1.346532 -5.202156 3.306463 2.135223 0.030703 0.723689 -1.372210 0.220386 -2.663376 5.755768 12.649279 3.771166 0.000000 0.000000 0.000000 0.048509 -0.122205 1.237572 0.152965 0.067004 1.994815 -4.216077 -9.604059 -2.149079 0.000000 0.000000 0.000000 5.338943 0.093930 -2.118907 -2.094721 0.974784 -2.275152 -3.306263 5.855107 6.927834 6.614893 -2.074020 -19.084512 0.000000 0.000000 0.000000 -19.375633 -0.841087 -2.283780 -39.299389 1.132538 -4.801848 -4.740572 -26.806958 1.951959 0.000000 0.000000 0.000000 17.284683 -4.092282 -2.900446 43.505645 -2.562658 -5.361693 3.974277 29.043177 2.205081 0.000000 0.000000 0.000000 
-0.025270 0.932459 0.018125 1.418110 -5.223041 2.816209 2.325056 -0.046772 -0.318195 -1.637141 0.188797 0.441034 6.242964 13.447736 2.316468 0.000000 0.000000 0.000000 0.232028 -0.175057 1.696148 0.163248 0.107501 2.980726 -4.358327 -9.669677 -2.947585 0.000000 0.000000 0.000000 5.613023 0.018750 -1.193135 -2.516205 1.166111 -2.323386 -2.996230 5.976951 7.301472 6.559792 -2.004543 -19.376635 0.000000 0.000000 0.000000 -19.936455 -0.915949 -2.321853 -39.741117 0.618683 -4.729979 -4.744423 -28.090232 2.049856 0.000000 0.000000 0.000000 17.686235 -3.642052 -2.674323 44.242254 -1.838193 -5.263124 3.394966 28.745931 2.051489 0.000000 0.000000 0.000000 
-0.030679 0.931689 0.020198 1.361346 -5.060033 2.361831 2.949675 -0.189309 -2.431734 -2.438466 0.252171 5.792858 6.550879 13.896583 0.619756 0.000000 0.000000 0.000000 0.572052 -0.243209 2.208014 0.199548 0.130755 3.635093 -4.430493 -9.379630 -4.264973 0.000000 0.000000 0.000000 5.820281 -0.082958 -0.015177 -2.097763 0.980687 -2.070001 -3.334346 6.490141 7.166808 6.601371 -1.938624 -19.443535 0.000000 0.000000 0.000000 -20.126542 -1.441710 -2.256538 -40.616015 -0.199172 -4.531578 -4.235654 -28.414224 1.901738 0.000000 0.000000 0.000000 18.300790 -3.647667 -2.572668 44.952277 -1.427656 -5.254666 2.703670 29.205056 1.976172 0.000000 0.000000 0.000000 
